<svg xmlns="http://www.w3.org/2000/svg" xmlns:xlink="http://www.w3.org/1999/xlink" width="1920" zoomAndPan="magnify" viewBox="0 0 1440 809.999993" height="1080" preserveAspectRatio="xMidYMid meet" version="1.0"><defs><clipPath id="cbec0b51d5"><path d="M 0 481 L 401.980469 481 L 401.980469 759 L 0 759 Z M 0 481 " clip-rule="nonzero"/></clipPath></defs><g clip-path="url(#cbec0b51d5)"><path fill="#c1ff72" d="M -195.855469 493.546875 C -194.898438 492.578125 -193.789062 491.839844 -192.527344 491.328125 C -190.972656 490.707031 -154.066406 476.152344 -99.953125 483.480469 C -68.398438 487.742188 -37.417969 498.609375 -7.902344 515.757812 C 28.726562 537.003906 63.136719 568.003906 94.402344 607.886719 C 167.949219 701.625 233.660156 746.546875 284.445312 737.753906 C 324.8125 730.792969 357.703125 690.160156 382.3125 616.953125 C 382.519531 616.332031 382.785156 615.730469 383.113281 615.160156 C 383.4375 614.589844 383.816406 614.054688 384.25 613.558594 C 384.679688 613.0625 385.15625 612.609375 385.679688 612.207031 C 386.199219 611.804688 386.753906 611.457031 387.34375 611.164062 C 387.933594 610.871094 388.546875 610.640625 389.179688 610.46875 C 389.816406 610.296875 390.460938 610.1875 391.121094 610.144531 C 391.777344 610.097656 392.429688 610.121094 393.085938 610.203125 C 393.738281 610.289062 394.375 610.4375 395 610.648438 C 395.621094 610.859375 396.222656 611.125 396.792969 611.453125 C 397.363281 611.777344 397.898438 612.15625 398.394531 612.589844 C 398.890625 613.019531 399.34375 613.496094 399.746094 614.015625 C 400.148438 614.539062 400.496094 615.09375 400.789062 615.683594 C 401.082031 616.273438 401.3125 616.882812 401.484375 617.519531 C 401.65625 618.15625 401.765625 618.800781 401.808594 619.457031 C 401.855469 620.117188 401.832031 620.769531 401.746094 621.421875 C 401.664062 622.074219 401.515625 622.714844 401.304688 623.335938 C 374.195312 704.054688 336.023438 749.199219 287.851562 757.5 C 228.523438 767.722656 158.128906 721.539062 78.640625 620.207031 C 25.585938 552.574219 -37.109375 512.140625 -102.640625 503.269531 C -151.546875 496.609375 -184.703125 509.707031 -185.035156 509.839844 C -185.644531 510.089844 -186.273438 510.273438 -186.917969 510.398438 C -187.566406 510.519531 -188.21875 510.578125 -188.875 510.574219 C -189.535156 510.566406 -190.1875 510.496094 -190.828125 510.363281 C -191.472656 510.230469 -192.097656 510.03125 -192.703125 509.773438 C -193.308594 509.515625 -193.882812 509.203125 -194.425781 508.832031 C -194.972656 508.460938 -195.472656 508.039062 -195.933594 507.566406 C -196.394531 507.097656 -196.800781 506.585938 -197.160156 506.035156 C -197.519531 505.484375 -197.824219 504.902344 -198.066406 504.292969 C -198.425781 503.386719 -198.648438 502.449219 -198.734375 501.476562 C -198.820312 500.507812 -198.765625 499.542969 -198.570312 498.589844 C -198.371094 497.632812 -198.042969 496.726562 -197.582031 495.871094 C -197.121094 495.011719 -196.546875 494.238281 -195.855469 493.546875 Z M -195.855469 493.546875 " fill-opacity="1" fill-rule="nonzero"/></g><path fill="#ffffff" d="M 966.171875 152.761719 C 967.128906 151.796875 968.238281 151.054688 969.5 150.542969 C 971.054688 149.921875 1007.960938 135.371094 1062.074219 142.695312 C 1093.628906 146.957031 1124.609375 157.824219 1154.125 174.972656 C 1190.753906 196.21875 1225.164062 227.222656 1256.429688 267.101562 C 1329.976562 360.839844 1395.6875 405.761719 1446.472656 396.972656 C 1486.839844 390.011719 1519.730469 349.375 1544.339844 276.171875 C 1544.546875 275.546875 1544.8125 274.949219 1545.140625 274.378906 C 1545.464844 273.804688 1545.84375 273.269531 1546.277344 272.773438 C 1546.707031 272.277344 1547.183594 271.828125 1547.707031 271.425781 C 1548.226562 271.023438 1548.78125 270.675781 1549.371094 270.382812 C 1549.960938 270.089844 1550.574219 269.855469 1551.207031 269.683594 C 1551.84375 269.511719 1552.488281 269.402344 1553.148438 269.359375 C 1553.804688 269.316406 1554.457031 269.335938 1555.113281 269.421875 C 1555.765625 269.507812 1556.402344 269.65625 1557.027344 269.867188 C 1557.648438 270.074219 1558.25 270.34375 1558.820312 270.667969 C 1559.390625 270.996094 1559.925781 271.375 1560.421875 271.804688 C 1560.921875 272.238281 1561.371094 272.714844 1561.773438 273.234375 C 1562.175781 273.753906 1562.523438 274.308594 1562.816406 274.898438 C 1563.109375 275.488281 1563.339844 276.101562 1563.511719 276.738281 C 1563.683594 277.371094 1563.792969 278.019531 1563.835938 278.675781 C 1563.882812 279.332031 1563.859375 279.988281 1563.773438 280.640625 C 1563.691406 281.292969 1563.542969 281.929688 1563.332031 282.554688 C 1536.222656 363.273438 1498.050781 408.414062 1449.878906 416.71875 C 1390.550781 426.941406 1320.15625 380.753906 1240.667969 279.421875 C 1187.613281 211.792969 1124.917969 171.355469 1059.386719 162.488281 C 1010.480469 155.828125 977.324219 168.925781 976.992188 169.058594 C 976.382812 169.304688 975.753906 169.492188 975.109375 169.613281 C 974.460938 169.738281 973.808594 169.796875 973.152344 169.789062 C 972.492188 169.785156 971.839844 169.714844 971.199219 169.582031 C 970.554688 169.445312 969.929688 169.25 969.324219 168.992188 C 968.71875 168.734375 968.144531 168.417969 967.601562 168.046875 C 967.054688 167.675781 966.554688 167.253906 966.09375 166.785156 C 965.632812 166.316406 965.226562 165.804688 964.867188 165.253906 C 964.507812 164.699219 964.203125 164.121094 963.960938 163.507812 C 963.601562 162.601562 963.378906 161.664062 963.292969 160.695312 C 963.207031 159.722656 963.261719 158.761719 963.457031 157.804688 C 963.65625 156.851562 963.984375 155.945312 964.445312 155.085938 C 964.90625 154.226562 965.480469 153.453125 966.171875 152.761719 Z M 966.171875 152.761719 " fill-opacity="1" fill-rule="nonzero"/></svg>