<svg xmlns="http://www.w3.org/2000/svg" xmlns:xlink="http://www.w3.org/1999/xlink" width="200" zoomAndPan="magnify" viewBox="0 0 150 30.000001" height="40" preserveAspectRatio="xMidYMid meet" version="1.0"><defs><g/><clipPath id="8d4d97b123"><path d="M 130.320312 11.160156 L 140.46875 11.160156 L 140.46875 21.300781 L 130.320312 21.300781 Z M 130.320312 11.160156 " clip-rule="nonzero"/></clipPath><clipPath id="f0d73fc6ca"><path d="M 134.699219 11.160156 L 140.46875 11.160156 L 140.46875 16.539062 L 134.699219 16.539062 Z M 134.699219 11.160156 " clip-rule="nonzero"/></clipPath><clipPath id="21184878ef"><path d="M 130.304688 15.554688 L 135.683594 15.554688 L 135.683594 21.324219 L 130.304688 21.324219 Z M 130.304688 15.554688 " clip-rule="nonzero"/></clipPath></defs><g fill="#fef8fa" fill-opacity="1"><g transform="translate(5.322578, 22.055838)"><g><path d="M 1.296875 -17.71875 L 6.796875 -17.71875 C 8.453125 -17.71875 9.773438 -17.363281 10.765625 -16.65625 C 11.753906 -15.945312 12.25 -14.800781 12.25 -13.21875 C 12.25 -11.4375 11.507812 -10.164062 10.03125 -9.40625 C 12.550781 -8.96875 13.8125 -7.476562 13.8125 -4.9375 C 13.8125 -3.445312 13.296875 -2.25 12.265625 -1.34375 C 11.234375 -0.445312 9.816406 0 8.015625 0 L 1.296875 0 Z M 5.328125 -10.78125 L 5.65625 -10.78125 C 6.550781 -10.78125 7.222656 -10.9375 7.671875 -11.25 C 8.117188 -11.570312 8.34375 -12.09375 8.34375 -12.8125 C 8.34375 -14.007812 7.445312 -14.609375 5.65625 -14.609375 L 5.328125 -14.609375 Z M 5.328125 -3.109375 L 6.59375 -3.109375 C 8.570312 -3.109375 9.5625 -3.769531 9.5625 -5.09375 C 9.5625 -5.882812 9.3125 -6.453125 8.8125 -6.796875 C 8.320312 -7.140625 7.582031 -7.3125 6.59375 -7.3125 L 5.328125 -7.3125 Z M 5.328125 -3.109375 "/></g></g></g><g fill="#fef8fa" fill-opacity="1"><g transform="translate(18.548235, 22.055838)"><g><path d="M 1.296875 0 L 1.296875 -11.015625 L 5.09375 -11.015625 L 5.09375 -9.4375 L 5.140625 -9.4375 C 5.160156 -9.488281 5.203125 -9.554688 5.265625 -9.640625 C 5.335938 -9.734375 5.476562 -9.882812 5.6875 -10.09375 C 5.90625 -10.3125 6.132812 -10.503906 6.375 -10.671875 C 6.625 -10.847656 6.941406 -11.003906 7.328125 -11.140625 C 7.710938 -11.273438 8.109375 -11.34375 8.515625 -11.34375 C 8.921875 -11.34375 9.320312 -11.285156 9.71875 -11.171875 C 10.125 -11.054688 10.421875 -10.941406 10.609375 -10.828125 L 10.921875 -10.65625 L 9.328125 -7.4375 C 8.847656 -7.832031 8.1875 -8.03125 7.34375 -8.03125 C 6.882812 -8.03125 6.488281 -7.929688 6.15625 -7.734375 C 5.832031 -7.535156 5.601562 -7.289062 5.46875 -7 C 5.332031 -6.71875 5.234375 -6.472656 5.171875 -6.265625 C 5.117188 -6.066406 5.09375 -5.910156 5.09375 -5.796875 L 5.09375 0 Z M 1.296875 0 "/></g></g></g><g fill="#fef8fa" fill-opacity="1"><g transform="translate(28.166586, 22.055838)"><g><path d="M 4.875 -11.015625 L 4.875 -5.78125 C 4.875 -4.6875 5.035156 -3.910156 5.359375 -3.453125 C 5.691406 -2.992188 6.253906 -2.765625 7.046875 -2.765625 C 7.835938 -2.765625 8.394531 -2.992188 8.71875 -3.453125 C 9.050781 -3.910156 9.21875 -4.6875 9.21875 -5.78125 L 9.21875 -11.015625 L 13.015625 -11.015625 L 13.015625 -4.859375 C 13.015625 -3.023438 12.535156 -1.703125 11.578125 -0.890625 C 10.628906 -0.078125 9.117188 0.328125 7.046875 0.328125 C 4.972656 0.328125 3.457031 -0.078125 2.5 -0.890625 C 1.550781 -1.703125 1.078125 -3.023438 1.078125 -4.859375 L 1.078125 -11.015625 Z M 4.875 -11.015625 "/></g></g></g><g fill="#fef8fa" fill-opacity="1"><g transform="translate(41.177522, 22.055838)"><g><path d="M 1.296875 0 L 1.296875 -11.015625 L 5.09375 -11.015625 L 5.09375 -9.859375 L 5.140625 -9.859375 C 6.128906 -10.847656 7.179688 -11.34375 8.296875 -11.34375 C 8.835938 -11.34375 9.375 -11.269531 9.90625 -11.125 C 10.445312 -10.988281 10.960938 -10.769531 11.453125 -10.46875 C 11.953125 -10.164062 12.351562 -9.738281 12.65625 -9.1875 C 12.96875 -8.632812 13.125 -7.992188 13.125 -7.265625 L 13.125 0 L 9.328125 0 L 9.328125 -6.234375 C 9.328125 -6.804688 9.144531 -7.304688 8.78125 -7.734375 C 8.414062 -8.160156 7.9375 -8.375 7.34375 -8.375 C 6.769531 -8.375 6.25 -8.148438 5.78125 -7.703125 C 5.320312 -7.265625 5.09375 -6.773438 5.09375 -6.234375 L 5.09375 0 Z M 1.296875 0 "/></g></g></g><g fill="#fef8fa" fill-opacity="1"><g transform="translate(54.295809, 22.055838)"><g><path d="M 2.328125 -1.296875 C 1.109375 -2.390625 0.5 -3.789062 0.5 -5.5 C 0.5 -7.207031 1.132812 -8.609375 2.40625 -9.703125 C 3.675781 -10.796875 5.253906 -11.34375 7.140625 -11.34375 C 8.984375 -11.34375 10.535156 -10.789062 11.796875 -9.6875 C 13.066406 -8.582031 13.703125 -7.1875 13.703125 -5.5 C 13.703125 -3.8125 13.082031 -2.414062 11.84375 -1.3125 C 10.601562 -0.21875 9.035156 0.328125 7.140625 0.328125 C 5.160156 0.328125 3.554688 -0.210938 2.328125 -1.296875 Z M 5.265625 -7.359375 C 4.773438 -6.878906 4.53125 -6.257812 4.53125 -5.5 C 4.53125 -4.738281 4.765625 -4.117188 5.234375 -3.640625 C 5.710938 -3.160156 6.335938 -2.921875 7.109375 -2.921875 C 7.859375 -2.921875 8.472656 -3.164062 8.953125 -3.65625 C 9.429688 -4.144531 9.671875 -4.757812 9.671875 -5.5 C 9.671875 -6.257812 9.421875 -6.878906 8.921875 -7.359375 C 8.429688 -7.847656 7.828125 -8.09375 7.109375 -8.09375 C 6.378906 -8.09375 5.765625 -7.847656 5.265625 -7.359375 Z M 5.265625 -7.359375 "/></g></g></g><g fill="#fef8fa" fill-opacity="1"><g transform="translate(67.414093, 22.055838)"><g/></g></g><g fill="#fef8fa" fill-opacity="1"><g transform="translate(72.201232, 22.055838)"><g><path d="M 11.53125 -17.71875 L 11.53125 -14.1875 L 5.328125 -14.1875 L 5.328125 -10.65625 L 11.0625 -10.65625 L 11.0625 -7.109375 L 5.328125 -7.109375 L 5.328125 0 L 1.296875 0 L 1.296875 -17.71875 Z M 11.53125 -17.71875 "/></g></g></g><g fill="#fef8fa" fill-opacity="1"><g transform="translate(83.301146, 22.055838)"><g><path d="M 1.65625 -17.15625 C 2.101562 -17.601562 2.632812 -17.828125 3.25 -17.828125 C 3.863281 -17.828125 4.390625 -17.601562 4.828125 -17.15625 C 5.273438 -16.71875 5.5 -16.191406 5.5 -15.578125 C 5.5 -14.960938 5.273438 -14.429688 4.828125 -13.984375 C 4.390625 -13.546875 3.863281 -13.328125 3.25 -13.328125 C 2.632812 -13.328125 2.101562 -13.546875 1.65625 -13.984375 C 1.207031 -14.429688 0.984375 -14.960938 0.984375 -15.578125 C 0.984375 -16.191406 1.207031 -16.71875 1.65625 -17.15625 Z M 1.296875 -11.015625 L 1.296875 0 L 5.09375 0 L 5.09375 -11.015625 Z M 1.296875 -11.015625 "/></g></g></g><g fill="#fef8fa" fill-opacity="1"><g transform="translate(88.710977, 22.055838)"><g><path d="M 0.796875 2.703125 L 3.90625 1.1875 C 4.476562 2.125 5.472656 2.59375 6.890625 2.59375 C 7.554688 2.59375 8.171875 2.378906 8.734375 1.953125 C 9.296875 1.535156 9.578125 0.890625 9.578125 0.015625 L 9.578125 -0.796875 C 8.910156 -0.046875 7.707031 0.328125 5.96875 0.328125 C 4.382812 0.328125 3.078125 -0.234375 2.046875 -1.359375 C 1.015625 -2.484375 0.5 -3.863281 0.5 -5.5 C 0.5 -7.132812 1.015625 -8.515625 2.046875 -9.640625 C 3.078125 -10.773438 4.382812 -11.34375 5.96875 -11.34375 C 7.382812 -11.34375 8.566406 -10.90625 9.515625 -10.03125 L 9.578125 -10.03125 L 9.578125 -11.015625 L 13.390625 -11.015625 L 13.390625 0.296875 C 13.390625 2.085938 12.789062 3.46875 11.59375 4.4375 C 10.40625 5.414062 8.835938 5.90625 6.890625 5.90625 C 3.742188 5.90625 1.710938 4.835938 0.796875 2.703125 Z M 5.265625 -7.359375 C 4.773438 -6.878906 4.53125 -6.257812 4.53125 -5.5 C 4.53125 -4.738281 4.765625 -4.117188 5.234375 -3.640625 C 5.710938 -3.160156 6.335938 -2.921875 7.109375 -2.921875 C 7.859375 -2.921875 8.472656 -3.164062 8.953125 -3.65625 C 9.429688 -4.144531 9.671875 -4.757812 9.671875 -5.5 C 9.671875 -6.257812 9.421875 -6.878906 8.921875 -7.359375 C 8.429688 -7.847656 7.828125 -8.09375 7.109375 -8.09375 C 6.378906 -8.09375 5.765625 -7.847656 5.265625 -7.359375 Z M 5.265625 -7.359375 "/></g></g></g><g fill="#fef8fa" fill-opacity="1"><g transform="translate(102.301656, 22.055838)"><g><path d="M 1.296875 0 L 1.296875 -18.484375 L 5.09375 -18.484375 L 5.09375 0 Z M 1.296875 0 "/></g></g></g><g fill="#fef8fa" fill-opacity="1"><g transform="translate(107.604116, 22.055838)"><g><path d="M 1.65625 -17.15625 C 2.101562 -17.601562 2.632812 -17.828125 3.25 -17.828125 C 3.863281 -17.828125 4.390625 -17.601562 4.828125 -17.15625 C 5.273438 -16.71875 5.5 -16.191406 5.5 -15.578125 C 5.5 -14.960938 5.273438 -14.429688 4.828125 -13.984375 C 4.390625 -13.546875 3.863281 -13.328125 3.25 -13.328125 C 2.632812 -13.328125 2.101562 -13.546875 1.65625 -13.984375 C 1.207031 -14.429688 0.984375 -14.960938 0.984375 -15.578125 C 0.984375 -16.191406 1.207031 -16.71875 1.65625 -17.15625 Z M 1.296875 -11.015625 L 1.296875 0 L 5.09375 0 L 5.09375 -11.015625 Z M 1.296875 -11.015625 "/></g></g></g><g fill="#fef8fa" fill-opacity="1"><g transform="translate(113.013947, 22.055838)"><g><path d="M 2.046875 -1.359375 C 1.015625 -2.484375 0.5 -3.863281 0.5 -5.5 C 0.5 -7.132812 1.015625 -8.515625 2.046875 -9.640625 C 3.078125 -10.773438 4.382812 -11.34375 5.96875 -11.34375 C 7.4375 -11.34375 8.640625 -10.882812 9.578125 -9.96875 L 9.578125 -11.015625 L 13.390625 -11.015625 L 13.390625 0 L 9.625 0 L 9.625 -1.25 L 9.578125 -1.25 C 8.640625 -0.195312 7.4375 0.328125 5.96875 0.328125 C 4.382812 0.328125 3.078125 -0.234375 2.046875 -1.359375 Z M 5.265625 -7.359375 C 4.773438 -6.878906 4.53125 -6.257812 4.53125 -5.5 C 4.53125 -4.738281 4.765625 -4.117188 5.234375 -3.640625 C 5.710938 -3.160156 6.335938 -2.921875 7.109375 -2.921875 C 7.859375 -2.921875 8.472656 -3.164062 8.953125 -3.65625 C 9.429688 -4.144531 9.671875 -4.757812 9.671875 -5.5 C 9.671875 -6.257812 9.421875 -6.878906 8.921875 -7.359375 C 8.429688 -7.847656 7.828125 -8.09375 7.109375 -8.09375 C 6.378906 -8.09375 5.765625 -7.847656 5.265625 -7.359375 Z M 5.265625 -7.359375 "/></g></g></g><g clip-path="url(#8d4d97b123)"><path fill="#c1e021" d="M 138.984375 12.648438 C 140.960938 14.625 140.960938 17.835938 138.984375 19.816406 C 137.003906 21.796875 133.792969 21.796875 131.8125 19.816406 C 129.832031 17.835938 129.832031 14.625 131.8125 12.648438 C 133.792969 10.667969 137.003906 10.667969 138.984375 12.648438 " fill-opacity="1" fill-rule="evenodd"/></g><g clip-path="url(#f0d73fc6ca)"><path fill="#fef8fa" d="M 140.457031 15.910156 C 139.078125 15.96875 137.730469 15.507812 136.730469 14.511719 C 135.824219 13.605469 135.359375 12.40625 135.328125 11.164062 C 135.121094 11.164062 134.917969 11.179688 134.714844 11.207031 C 134.730469 11.828125 134.847656 12.425781 135.054688 12.996094 C 135.324219 13.738281 135.742188 14.390625 136.296875 14.945312 C 136.847656 15.5 137.503906 15.917969 138.246094 16.1875 C 138.945312 16.441406 139.6875 16.558594 140.457031 16.527344 C 140.472656 16.320312 140.46875 16.113281 140.457031 15.910156 " fill-opacity="1" fill-rule="nonzero"/></g><g clip-path="url(#21184878ef)"><path fill="#fef8fa" d="M 135.054688 21.3125 C 135.113281 19.933594 134.652344 18.585938 133.65625 17.585938 C 132.75 16.679688 131.550781 16.214844 130.304688 16.183594 C 130.308594 15.980469 130.324219 15.773438 130.351562 15.570312 C 130.972656 15.585938 131.570312 15.703125 132.140625 15.910156 C 132.882812 16.179688 133.535156 16.597656 134.089844 17.152344 C 134.644531 17.707031 135.0625 18.359375 135.332031 19.101562 C 135.585938 19.800781 135.703125 20.542969 135.671875 21.316406 C 135.464844 21.328125 135.257812 21.324219 135.054688 21.3125 " fill-opacity="1" fill-rule="nonzero"/></g></svg>